<svg width="24" height="24" viewBox="0 0 19 20"  fill="none" xmlns="http://www.w3.org/2000/svg">
<path d="M7.5,19.9c-0.2,0-0.4-0.2-0.4-0.5l0-0.3c0-0.3,0-0.5,0-0.8v-0.4l-1.6,0
	c-1.4-0.1-1.9-1.2-2.1-2.4l-0.1-0.4l-0.1-0.2c-0.1-0.3-0.2-0.6-0.2-0.9l0-0.1l0-0.6l0-0.1l-1.4-1c-0.2-0.1-0.3-0.4-0.1-0.6
	c0.7-1.1,1.1-1.4,1.5-2.1c0.3-0.5,0.5-1,0.4-1.8C3.2,2.9,7,1.2,9.7,1.1c0.2,0,0.4,0,0.6,0c0.2,0,0.4,0.2,0.4,0.5
	c0,0.2-0.2,0.4-0.5,0.4c-0.2,0-0.3,0-0.5,0C7.3,2.1,4.2,3.5,4.4,7.6c0.1,1-0.1,1.7-0.6,2.4c-0.2,0.3-0.4,0.5-0.6,0.8l-0.7,0.9
	l1.2,0.8c0.1,0,0.1,0.1,0.2,0.2c0.2,0.4,0.2,0.8,0.2,1.1l0,0.2l0,0.2c0,0.2,0.1,0.4,0.2,0.6c0,0.1,0.1,0.1,0.1,0.2
	c0.1,0.7,0.2,1.2,0.4,1.5C4.9,16.8,5.2,17,5.6,17l2,0c0.2,0,0.4,0.2,0.4,0.4c0,0.6,0,1.1,0,1.7l0,0.3C8,19.7,7.8,19.9,7.5,19.9z
	 M14.6,19.9c-0.2,0-0.5-0.2-0.5-0.4l0-0.2c-0.3-2.8,0.4-4.1,1.1-5.3c0.6-1.1,1.3-2.2,1.2-4.6c0-0.2,0.2-0.5,0.4-0.5
	c0.2,0,0.5,0.2,0.5,0.4c0.1,2.7-0.6,3.9-1.3,5.1c-0.6,1.1-1.2,2.2-1,4.8l0,0.2C15,19.6,14.9,19.8,14.6,19.9z M9.5,13.4L9.5,13.4
	l-0.1,0l0,0l-1.4-0.6c-0.1-0.1-0.2-0.2-0.2-0.3l0.1-0.8l-0.1-0.1l-0.2-0.2l-0.8,0.1c-0.1,0-0.3-0.1-0.3-0.2L5.8,9.8
	c-0.1-0.1,0-0.3,0.1-0.4l0.7-0.5l0-0.2v0l0-0.2L5.8,8C5.7,8,5.7,7.8,5.7,7.7l0.6-1.4C6.4,6.1,6.5,6,6.7,6l0.9,0.1L7.7,6l0.1-0.1
	L7.7,5c0-0.1,0.1-0.3,0.2-0.3l1.4-0.6c0.1-0.1,0.3,0,0.4,0.1l0.5,0.7l0.4,0l0.5-0.7c0.1-0.1,0.2-0.2,0.4-0.1l1.4,0.6
	C13,4.7,13.1,4.8,13.1,5l-0.1,0.8L13.1,6l0.1,0.1L14.1,6c0.1,0,0.3,0.1,0.3,0.2L15,7.6c0.1,0.1,0,0.3-0.1,0.4l-0.7,0.5l0,0.2l0,0.3
	l0.7,0.5C15,9.5,15.1,9.6,15,9.8l-0.6,1.4c-0.1,0.1-0.2,0.2-0.3,0.2l-0.8-0.1l-0.1,0.1L13,11.6l0.1,0.8c0,0.1-0.1,0.3-0.2,0.3
	l-1.4,0.6c-0.1,0.1-0.3,0-0.4-0.1l-0.5-0.7l-0.2,0h0l-0.3,0l-0.5,0.7C9.7,13.3,9.6,13.4,9.5,13.4L9.5,13.4L9.5,13.4z M9.3,12.7
	l0.4-0.6C9.8,12,9.9,12,10.1,12l0.1,0c0.2,0,0.4,0,0.6,0l0,0c0.1,0,0.2,0,0.3,0.1l0.4,0.6l1-0.4l-0.1-0.7c0-0.1,0-0.2,0.1-0.3
	l0.1-0.1c0.1-0.1,0.3-0.3,0.4-0.4l0,0c0.1-0.1,0.2-0.1,0.3-0.1l0.7,0.1l0.4-1l-0.6-0.4c-0.1-0.1-0.1-0.2-0.1-0.3l0-0.1
	c0-0.2,0-0.4,0-0.6l0,0c0-0.1,0-0.2,0.1-0.3l0.6-0.4l-0.4-1l-0.8,0.1c-0.1,0-0.2,0-0.3-0.1c-0.1-0.2-0.3-0.3-0.4-0.4l-0.1-0.1
	c-0.1-0.1-0.1-0.2-0.1-0.3l0.1-0.8l-1-0.4L11,5.4c-0.1,0.1-0.2,0.1-0.3,0.1l-0.2,0c-0.1,0-0.2,0-0.4,0l-0.1,0c-0.1,0-0.2,0-0.3-0.1
	L9.3,4.8l-1,0.4L8.5,6c0,0.1,0,0.1,0,0.2L8.3,6.3C8.2,6.4,8.1,6.5,7.9,6.7l0,0C7.8,6.8,7.7,6.8,7.6,6.8L6.8,6.7l-0.4,1l0.7,0.5
	c0.1,0.1,0.1,0.2,0.1,0.3c0,0.2,0,0.4,0,0.6l0,0c0,0.1,0,0.2-0.1,0.3L6.4,9.8l0.4,1l0.8-0.1c0.1,0,0.2,0,0.3,0.1l0,0.1
	c0.1,0.1,0.3,0.3,0.4,0.4l0,0l0.1,0.1l0,0c0,0.1,0,0.1,0,0.2l-0.1,0.8L9.3,12.7z M10.4,10.9c-1.2,0-2.2-1-2.2-2.2s1-2.2,2.2-2.2
	c1.2,0,2.2,1,2.2,2.2S11.6,10.9,10.4,10.9z M10.4,10.3c0.9,0,1.6-0.7,1.6-1.6c0-0.9-0.7-1.6-1.6-1.6c-0.9,0-1.6,0.7-1.6,1.6
	C8.8,9.6,9.5,10.3,10.4,10.3z M14.3,5.4L14.3,5.4L14.3,5.4l-0.1,0l-0.8-0.3c-0.1-0.1-0.2-0.2-0.2-0.3l0.1-0.4l0,0l0-0.1l-0.4,0.1
	c-0.1,0-0.3-0.1-0.3-0.2l-0.3-0.8c-0.1-0.1,0-0.3,0.1-0.4l0.3-0.2l0,0v0l-0.3-0.2c-0.1-0.1-0.2-0.2-0.1-0.4l0.3-0.8
	c0.1-0.1,0.2-0.2,0.3-0.2l0.4,0.1l0,0l0,0l-0.1-0.4c0-0.1,0.1-0.3,0.2-0.3l0.8-0.3c0.1-0.1,0.3,0,0.4,0.1l0.2,0.3l0.1,0l0.2-0.3
	c0.1-0.1,0.2-0.2,0.4-0.1l0.8,0.3c0.1,0.1,0.2,0.2,0.2,0.3l-0.1,0.4l0,0l0,0l0.4-0.1c0.1,0,0.3,0.1,0.3,0.2l0.3,0.8
	c0.1,0.1,0,0.3-0.1,0.4l-0.3,0.2l0,0l0,0.1L17.4,3c0.1,0.1,0.2,0.2,0.1,0.4l-0.3,0.8c-0.1,0.1-0.2,0.2-0.3,0.2l-0.3-0.1l0,0
	l-0.1,0.1l0.1,0.3c0,0.1-0.1,0.3-0.2,0.3l-0.8,0.3c-0.1,0.1-0.3,0-0.4-0.1L14.9,5l-0.1,0l-0.2,0.3C14.5,5.3,14.4,5.4,14.3,5.4z
	 M14.2,4.7l0.2-0.2c0.1-0.1,0.2-0.1,0.3-0.1l0.1,0c0.1,0,0.2,0,0.3,0c0.1,0,0.2,0,0.3,0.1l0.2,0.2l0.3-0.1l0-0.3
	c0-0.1,0-0.2,0.1-0.3l0,0C16,3.9,16,3.8,16.1,3.7l0,0c0.1-0.1,0.2-0.1,0.3-0.1l0.3,0l0.1-0.3l-0.2-0.2c-0.1-0.1-0.1-0.2-0.1-0.3
	l0-0.1l0-0.3l0,0c0-0.1,0-0.2,0.1-0.3l0.2-0.2l-0.1-0.3l-0.3,0.1c-0.1,0-0.2,0-0.3-0.1c-0.1-0.1-0.1-0.1-0.2-0.2l0,0
	c-0.1-0.1-0.1-0.2-0.1-0.3l0-0.3l-0.3-0.1L15.3,1c-0.1,0.1-0.2,0.1-0.3,0.1l-0.1,0c-0.1,0-0.1,0-0.2,0l-0.1,0c-0.1,0-0.2,0-0.3-0.1
	l-0.2-0.3l-0.3,0.1l0.1,0.3c0,0.1,0,0.2-0.1,0.3c-0.1,0.1-0.1,0.1-0.2,0.2l0,0c-0.1,0.1-0.2,0.1-0.3,0.1L13,1.8l-0.1,0.3l0.3,0.2
	c0.1,0.1,0.1,0.2,0.1,0.3l0,0c0,0.1,0,0.1,0,0.2l0,0.1l0,0.2c0,0.1-0.1,0.1-0.1,0.1l-0.3,0.2L13,3.7l0.3-0.1c0.1,0,0.2,0,0.3,0.1
	l0,0c0.1,0.1,0.1,0.1,0.2,0.2l0,0C13.9,4.1,14,4.2,14,4.3l0,0.3L14.2,4.7z M14.9,4c-0.7,0-1.3-0.6-1.3-1.3c0-0.7,0.6-1.3,1.3-1.3
	c0.7,0,1.3,0.6,1.3,1.3C16.2,3.4,15.6,4,14.9,4z M14.9,3.4c0.4,0,0.7-0.3,0.7-0.7S15.2,2,14.9,2c-0.4,0-0.7,0.3-0.7,0.7
	S14.5,3.4,14.9,3.4z" fill="white"/>
</svg>
