<svg width="24" height="24" viewBox="0 0 19 20"  fill="none" xmlns="http://www.w3.org/2000/svg">
<path d="M14.7,2.7l-3.8,2.2v1.5L9.6,5.6L5.8,7.8v1.6L4.3,8.6l-3.8,2.2v4.4l3.8,2.2l3.8-2.2v-1.6l1.5,0.8l3.8-2.2v-1.5
	l1.3,0.8l3.8-2.2V4.9L14.7,2.7z M11.5,7.5L12.4,8l-0.8,0.5V7.5z M6.4,10.6L7.1,11l-0.7,0.4V10.6z M4,16.4l-2.8-1.6v-3.2h0L4,13.1
	L4,16.4z M1.5,11l2.8-1.6l1.5,0.8v1.6l-1.5,0.8L1.5,11z M7.5,14.8l-2.8,1.6l0-3.2L6,12.3l1.4,0.8V14.8z M7.5,12.4L6.7,12l0.7-0.4
	V12.4z M9.2,13.4l-1.1-0.7v-2l-1.7-1V8.6l2.8,1.6L9.2,13.4z M6.8,8l2.8-1.6l1.3,0.8v1.7L9.6,9.6L6.8,8z M12.7,11.8l-2.8,1.6l0-3.2
	l1.3-0.8l1.5,0.8V11.8z M12.7,9.5L11.9,9l0.8-0.5V9.5z M14.4,10.5l-1-0.6V7.8l-1.8-1V5.6l2.8,1.6L14.4,10.5z M11.9,5l2.8-1.6L17.5,5
	l-2.8,1.6L11.9,5z M17.8,8.9L15,10.5l0-3.2l2.8-1.6V8.9z" fill="white"/>
</svg>
