<svg width="24" height="24" viewBox="0 0 19 20"  fill="none" xmlns="http://www.w3.org/2000/svg">
<path d="M16,8.9c-0.1-1.8-1.7-3.2-3.5-3.2c-0.4,0-0.8,0.1-1.2,0.2c-0.6-0.9-1.7-1.4-2.8-1.4C7,4.6,5.7,5.6,5.3,7
	C3.8,7.1,2.6,8.2,2.5,9.7C1.1,9.9,0,11.1,0,12.5c0,1.6,1.3,2.8,2.9,2.8l2.6,0c0.1,0,0.2,0,0.4,0l3.2,0l2.1,0l0,0l5.1,0l0.1,0
	c1.6-0.3,2.7-1.7,2.7-3.2C19,10.7,17.7,9.1,16,8.9z M8.5,5.5c0.8,0,1.5,0.4,2,0.9c-0.4,0.2-0.7,0.5-0.9,0.9l0,0.1
	C9.1,7.2,8.6,7,8.1,7C7.3,7,6.6,7.3,6,7.8l0-0.4C6.3,6.3,7.3,5.5,8.5,5.5z M0.9,12.5c0-1.1,0.9-2,2-2l0.6,0.1L3.4,9.8
	c0-1.1,0.9-2,2-2l0.5,0C5.3,8.4,5,9.1,4.9,9.8c-1.2,0.4-2,1.5-2,2.7c0,0.8,0.3,1.4,0.8,1.9l-0.8,0C1.8,14.5,0.9,13.6,0.9,12.5z
	 M16.2,14.5l-7.1,0l-3.6,0c-1-0.2-1.7-1-1.7-2c0-0.9,0.7-1.8,1.6-1.9l0.5,0L5.8,10c0-1.2,1-2.1,2.2-2.1c0.5,0,0.9,0.1,1.2,0.3
	l0.5,0.4l0.5-0.9c0.5-0.7,1.3-1.1,2.2-1.1c1.5,0,2.6,1.1,2.6,2.5L15,9.9l0.7-0.1c1.4,0,2.4,1.3,2.4,2.3
	C18.1,13.3,17.3,14.2,16.2,14.5z" fill="white"/>
</svg>
