<svg width="24" height="24" viewBox="0 0 19 20"  fill="none" xmlns="http://www.w3.org/2000/svg">
	<path d="M17.1,3.4c-0.5-0.5-1.1-0.9-1.9-1.2c-1.5-0.6-3.5-1-5.7-1s-4.2,0.4-5.7,1C3,2.5,2.4,2.9,1.9,3.4
	S1.1,4.5,1.1,5.2v9.5c0,0.7,0.3,1.3,0.8,1.8s1.1,0.9,1.9,1.2c1.5,0.7,3.5,1,5.7,1s4.2-0.4,5.7-1c0.8-0.3,1.4-0.7,1.9-1.2
	s0.8-1.1,0.8-1.8V5.2C17.9,4.5,17.6,3.9,17.1,3.4z M3,4.3C3.3,4,3.8,3.7,4.4,3.4c1.2-0.5,3.1-0.9,5.1-0.9s3.9,0.4,5.1,0.9
	C15.2,3.7,15.7,4,16,4.3c0.3,0.3,0.4,0.6,0.4,0.9c0,0.3-0.1,0.5-0.4,0.8s-0.8,0.6-1.4,0.9c-1.3,0.6-3.1,0.9-5.1,0.9S5.6,7.4,4.4,6.9
	C3.8,6.6,3.3,6.3,3,6C2.7,5.7,2.6,5.4,2.6,5.2C2.6,4.9,2.7,4.7,3,4.3z M16.5,14.7c0,0.3-0.1,0.5-0.4,0.8c-0.3,0.3-0.8,0.6-1.4,0.9
	c-1.3,0.6-3.1,0.9-5.1,0.9s-3.9-0.4-5.1-0.9c-0.6-0.3-1.1-0.6-1.4-0.9c-0.3-0.3-0.4-0.6-0.4-0.8V14c0.3,0.2,0.7,0.4,1.1,0.6
	c1.5,0.7,3.5,1,5.7,1s4.2-0.4,5.7-1c0.5-0.2,0.9-0.5,1.3-0.7V14.7z M16.5,11.6c0,0.3-0.1,0.5-0.4,0.8c-0.3,0.3-0.8,0.6-1.4,0.9
	c-1.3,0.6-3.1,0.9-5.1,0.9s-3.9-0.4-5.1-0.9c-0.6-0.3-1.1-0.6-1.4-0.9c-0.3-0.3-0.4-0.6-0.4-0.8v-0.8c0.3,0.2,0.7,0.4,1.1,0.6
	c1.5,0.7,3.5,1,5.7,1s4.2-0.4,5.7-1c0.5-0.2,0.9-0.5,1.3-0.7V11.6z M16.5,8.4c0,0.3-0.1,0.5-0.4,0.8c-0.3,0.3-0.8,0.6-1.4,0.9
	c-1.3,0.6-3.1,0.9-5.1,0.9s-3.9-0.4-5.1-0.9C3.9,9.8,3.4,9.5,3.1,9.2C2.8,8.9,2.7,8.6,2.7,8.4V7.7C3,7.9,3.4,8.1,3.8,8.2
	c1.5,0.7,3.5,1,5.7,1s4.2-0.4,5.7-1c0.5-0.2,0.9-0.5,1.3-0.7V8.4z" fill="white"/>
</svg>
