<svg width="24" height="24" viewBox="0 0 19 20"  fill="none" xmlns="http://www.w3.org/2000/svg">
<path d="M9.5,1.1c-4.9,0-8.9,4-8.9,8.9s4,8.9,8.9,8.9s8.9-4,8.9-8.9S14.4,1.1,9.5,1.1z M9.5,2.7c0.4,0,1.2,1.2,1.7,3.9
	H7.8C8.3,4,9.1,2.7,9.5,2.7z M7.1,3.1C6.7,4,6.4,5.2,6.2,6.5H3.1C3.9,4.9,5.4,3.7,7.1,3.1z M2.2,10c0-0.7,0.1-1.3,0.3-1.9H6
	C6,8.8,6,9.3,6,10s0,1.2,0.1,1.9H2.4C2.3,11.3,2.2,10.7,2.2,10z M3.1,13.5h3.1c0.2,1.3,0.5,2.5,0.9,3.4C5.4,16.3,3.9,15.1,3.1,13.5z
	 M9.5,17.3c-0.4,0-1.2-1.2-1.7-3.9h3.4C10.7,16,9.9,17.3,9.5,17.3z M11.5,11.9h-4c-0.1-0.7-0.1-1.2-0.1-1.9s0-1.3,0.1-1.9h3.9
	c0.1,0.7,0.1,1.2,0.1,1.9S11.5,11.3,11.5,11.9z M15.9,6.5h-3.1c-0.2-1.3-0.5-2.5-0.9-3.4C13.6,3.7,15.1,4.9,15.9,6.5z M11.9,16.9
	c0.4-0.9,0.7-2,0.9-3.4h3C15.1,15.1,13.6,16.3,11.9,16.9z M13,11.9c0.1-0.7,0.1-1.2,0.1-1.9s0-1.2-0.1-1.9h3.5
	c0.2,0.7,0.3,1.2,0.3,1.9s-0.1,1.3-0.3,1.9H13z" fill="white"/>
</svg>
