<svg width="24" height="24" viewBox="0 0 19 20"  fill="none" xmlns="http://www.w3.org/2000/svg">
	<path d="M16.9,12.4V7.6c1.4-0.5,1.4-2.7-0.2-3.1c-0.5-0.1-1.1,0-1.5,0.3l-4.2-2.4c0.2-1-0.6-1.9-1.6-1.9
	c-1,0-1.8,0.9-1.6,1.9L3.7,4.8C3,4.2,1.8,4.3,1.3,5.2c-0.5,0.9,0,2.1,0.8,2.3v4.8c-0.9,0.3-1.4,1.4-0.8,2.3c0.5,0.9,1.8,1,2.4,0.4
	l4.2,2.4c-0.2,0.9,0.6,1.9,1.6,1.9c1,0,1.8-0.9,1.6-1.9l4.2-2.4c0.7,0.6,1.9,0.5,2.4-0.4C18.2,13.8,17.8,12.7,16.9,12.4z M2.7,12.3
	V7.7c0.5,0,0.9-0.2,1.3-0.6L7,8.9c-0.3,0.7-0.3,1.5,0,2.2l-3.1,1.8C3.6,12.5,3.2,12.3,2.7,12.3z M9.2,16.3c-0.5,0.1-0.9,0.4-1.1,0.8
	l-4-2.3c0.2-0.4,0.3-0.9,0.1-1.4l3.1-1.8c0.4,0.6,1.1,1,1.9,1.1V16.3z M9.2,7.3C8.4,7.4,7.8,7.8,7.3,8.4L4.2,6.6
	c0.2-0.5,0.1-1-0.1-1.4l4-2.3c0.2,0.4,0.6,0.7,1.1,0.8V7.3z M9.8,3.7c0.5-0.1,0.9-0.4,1.1-0.8l4,2.3c-0.2,0.4-0.3,0.9-0.1,1.4
	l-3.1,1.8c-0.4-0.6-1.1-1-1.9-1.1V3.7z M10.9,17c-0.2-0.4-0.6-0.7-1.1-0.8v-3.6c0.8-0.1,1.4-0.5,1.9-1.1l3.1,1.8
	c-0.2,0.5-0.1,1,0.1,1.4L10.9,17z M16.3,12.3c-0.5,0-0.9,0.2-1.2,0.6L12,11.1c0.3-0.7,0.3-1.5,0-2.2l3.1-1.8
	c0.3,0.3,0.7,0.6,1.3,0.6V12.3z" fill="white"/>
</svg>
