<svg width="19" height="20" viewBox="0 0 19 20" fill="none" xmlns="http://www.w3.org/2000/svg">
<path d="M16.3932 12.253C16.302 11.586 15.8127 11.066 15.1829 10.911C12.7347 10.307 12.121 8.823 12.0175 7.177C11.5833 7.092 10.811 7 9.5 7C8.189 7 7.41665 7.092 6.9825 7.177C6.87895 8.823 6.26525 10.307 3.8171 10.911C3.18725 11.067 2.698 11.586 2.6068 12.253L2.13465 15.695C1.9684 16.907 2.8139 18 3.99 18H15.01C16.1851 18 17.0316 16.907 16.8653 15.695L16.3932 12.253ZM9.5 15.492C8.17475 15.492 7.1003 14.372 7.1003 12.992C7.1003 11.612 8.17475 10.492 9.5 10.492C10.8252 10.492 11.8997 11.612 11.8997 12.992C11.8997 14.372 10.8243 15.492 9.5 15.492ZM18.9525 6C18.9297 4.5 15.3026 2.001 9.5 2C3.69645 2.001 0.0693467 4.5 0.0474967 6C0.0256467 7.5 0.0674468 9.452 2.45575 9.127C5.2497 8.746 5.07775 7.719 5.07775 6.251C5.07775 5.227 7.35015 4.98 9.5 4.98C11.6498 4.98 13.9213 5.227 13.9222 6.251C13.9222 7.719 13.7503 8.746 16.5442 9.127C18.9316 9.452 18.9743 7.5 18.9525 6Z" fill="white"/>
</svg>
