<svg width="24" height="24" viewBox="0 0 19 20"  fill="none" xmlns="http://www.w3.org/2000/svg">
<path d="M18.3,10.9c0-0.9-0.4-1.7-1.1-2.2c0.6-0.4,1.1-1.2,1.1-2.2c0-0.9-0.4-1.7-1.1-2.2c0,0,0,0,0,0h-0.1
	C16.9,4.2,16.5,4,16.1,4h-1.4V2.2c0-0.2-0.1-0.4-0.3-0.4H6C5.9,1.9,5.7,2,5.7,2.2V4h0H4.1C3.7,4,3.3,4.2,3,4.4h0
	C2.6,4.6,2.3,5,2.1,5.5c0,0,0,0,0,0c0,0.1,0,0.1-0.1,0.2c0,0,0,0,0,0C2,5.9,2,6,2,6.2H1.3v0V4.4V3.5c0-0.2-0.1-0.4-0.3-0.4
	S0.7,3.3,0.7,3.5v0.9v1.8v8.7c0,0.2,0.1,0.4,0.3,0.4s0.3-0.2,0.3-0.4v-3.6H2c0.1,1.2,1,2.1,2,2.1c0,0,0.1,0.1,0.2,0.1h3.2v2.5
	c0,1.2,0.9,2.2,1.9,2.2h8.6c0.2,0,0.3-0.2,0.3-0.4c0-0.2-0.1-0.4-0.3-0.4c-0.6,0-1.1-0.7-1.1-1.4v-2.7C17.7,13,18.3,12,18.3,10.9z
	 M16.3,8.3c-0.1,0-0.2,0-0.2,0H5.7c0.4-0.5,0.7-1.1,0.7-1.8c0-0.7-0.2-1.3-0.6-1.8h10.4c0.3,0,0.5,0.1,0.8,0.2c0,0,0,0,0,0
	C17,5,17,5.1,17.1,5.2c0,0,0,0,0,0c0.3,0.3,0.5,0.6,0.5,1h0c0,0.1,0,0.3,0,0.4C17.7,7.5,17.1,8.2,16.3,8.3z M4.1,6.2H2.6
	c0,0,0,0,0,0h0c0.2-0.8,0.8-1.4,1.5-1.4c0.3,0,0.5,0.1,0.8,0.2c0,0,0,0,0,0C5,5,5.1,5.1,5.1,5.1c0,0,0,0,0,0
	c0.1,0.1,0.1,0.1,0.2,0.2c0,0,0,0,0,0c0.2,0.2,0.3,0.5,0.3,0.8h0c0,0.1,0,0.2,0,0.4c0,1-0.7,1.8-1.6,1.8c-0.8,0-1.4-0.6-1.5-1.4h1.5
	c0.2,0,0.3-0.2,0.3-0.4C4.5,6.3,4.3,6.2,4.1,6.2z M14.1,2.6V4H6.4V2.6H14.1z M1.3,10.5V6.9H2c0.1,0.8,0.5,1.4,1,1.8
	c-0.6,0.4-0.9,1-1,1.8H1.3z M4.1,12.6c-0.8,0-1.4-0.6-1.5-1.4h1.5c0.2,0,0.3-0.2,0.3-0.4c0-0.2-0.1-0.4-0.3-0.4H2.6
	c0.1-0.8,0.8-1.4,1.5-1.4c0.9,0,1.6,0.8,1.6,1.8C5.7,11.8,5,12.6,4.1,12.6z M7.4,12.7H5.7c0.4-0.5,0.7-1.1,0.7-1.8
	c0-0.7-0.2-1.3-0.7-1.8H6c0,0,0.1,0,0.2,0c0.3,0,0.6,0.1,0.9,0.4c0.2,0.3,0.4,0.6,0.4,1V12.7z M9.3,17.4c-0.7,0-1.3-0.7-1.3-1.5
	v-5.4c0-0.5-0.2-1-0.5-1.4h7.3c0.7,0,1.3,0.7,1.3,1.5V16c0,0.5,0.2,1,0.5,1.4H9.3z M16.2,9.1c0.8,0.1,1.5,0.8,1.5,1.8
	c0,0.7-0.4,1.4-0.9,1.6v-1.9C16.8,10,16.6,9.5,16.2,9.1z" fill="white"/>
</svg>
