<?xml version="1.0" encoding="utf-8"?>
<!-- Generator: Adobe Illustrator 25.0.0, SVG Export Plug-In . SVG Version: 6.00 Build 0)  -->
<svg version="1.1" id="Layer_1" xmlns="http://www.w3.org/2000/svg" xmlns:xlink="http://www.w3.org/1999/xlink" x="0px" y="0px"
	 viewBox="0 0 24 24" style="enable-background:new 0 0 24 24;" xml:space="preserve">
<style type="text/css">
	.st0{fill:#FFFFFF;}
</style>
<path class="st0" d="M20.2,2.8h-3.5V2.6c0-0.6-0.5-1.1-1.1-1.1H8.2c-0.6,0-1.1,0.5-1.1,1.1v0.1H3.7c-0.8,0-1.6,0.7-1.6,1.6v11.1
	c0,0.8,0.7,1.6,1.6,1.6h3.5v0.1c0,0.6,0.5,1.1,1.1,1.1h3.3v1.4c-0.5,0.1-0.9,0.6-1,1H9c-0.2-0.7-0.9-1.2-1.5-1.2
	c-0.7,0-1.2,0.5-1.5,1.1H4.6v0.8h1.5c0.2,0.7,0.8,1.1,1.5,1.1c0.6,0,1.2-0.4,1.4-1h1.7c0.2,0.7,0.8,1.1,1.5,1.1
	c0.7,0,1.3-0.6,1.4-1.2H15c0.2,0.7,0.8,1.1,1.5,1.1c0.7,0,1.2-0.5,1.4-1.1h2.3v-0.8h-2.3c-0.2-0.6-0.7-1.1-1.4-1.1
	c-0.7,0-1.2,0.5-1.5,1.1h-1.6c-0.2-0.4-0.5-0.7-1-0.9v-1.4h3.3c0.6,0,1.1-0.5,1.1-1.1V17h3.5c0.8,0,1.6-0.7,1.6-1.6V4.3
	C21.6,3.5,20.9,2.8,20.2,2.8z M7.2,4.6H3.8v0.8h3.4v0.3H3.8v0.8h3.4v0.3H3.8v0.8h3.4v8.1H3.7v0.1c-0.2,0-0.5-0.2-0.5-0.5V4.3
	c0-0.2,0.2-0.5,0.5-0.5h3.5V4.6z M7.4,21.3c-0.2,0-0.5-0.2-0.5-0.5c0-0.2,0.2-0.5,0.5-0.5c0.2,0,0.5,0.2,0.5,0.5
	C7.9,21.1,7.7,21.3,7.4,21.3z M16.4,20.4c0.2,0,0.5,0.2,0.5,0.5c0,0.2-0.2,0.5-0.5,0.5c-0.2,0-0.5-0.2-0.5-0.5
	C16,20.6,16.2,20.4,16.4,20.4z M11.9,21.3c-0.2,0-0.5-0.2-0.5-0.5c0-0.2,0.2-0.5,0.5-0.5s0.5,0.2,0.5,0.5
	C12.4,21.1,12.2,21.3,11.9,21.3z M8.2,17.1V2.6h7.4v0.9H9.1v0.8h6.5v0.3H9.1v0.8h6.5v0.3H9.1v0.8h6.5v10.6H8.2z M20.6,15.4
	c0,0.2-0.2,0.5-0.5,0.5h-3.5V7.8H20V7h-3.4V6.7H20V5.8h-3.4V5.4H20V4.6h-3.4V3.8h3.5c0.2,0,0.5,0.2,0.5,0.5V15.4z"/>
</svg>
