<svg width="24" height="24" viewBox="0 0 24 24"  fill="none" xmlns="http://www.w3.org/2000/svg">
<path d="M21.1,1.8h-3.9V1.5c0-0.7-0.5-1.3-1.3-1.3H7.7c-0.5,0-1.2,0.5-1.2,1.3v0.1H2.7C1.9,1.6,1,2.4,1,3.4v12.4
	c0,0.9,0.8,1.7,1.7,1.7h3.9v0.1c0,0.7,0.5,1.3,1.3,1.3h3.6v1.5c-0.5,0.1-1,0.7-1.1,1.1H8.6c-0.2-0.8-1-1.4-1.7-1.4s-1.4,0.5-1.6,1.3
	H3.7v0.9h1.6C5.6,23,6.2,23.5,7,23.5c0.7,0,1.3-0.4,1.5-1.1h1.8c0.2,0.8,0.9,1.3,1.6,1.3c0.8,0,1.4-0.7,1.6-1.4h1.6
	c0.2,0.8,0.9,1.3,1.6,1.3c0.8,0,1.4-0.5,1.5-1.3h2.6v-0.9h-2.5c-0.2-0.7-0.9-1.3-1.5-1.3c-0.8,0-1.4,0.5-1.6,1.3h-1.7
	c-0.2-0.4-0.5-0.9-1.1-1V19h3.6c0.7,0,1.3-0.5,1.3-1.3v-0.1h3.9c0.9,0,1.7-0.8,1.7-1.7V3.4C22.7,2.5,21.9,1.8,21.1,1.8z M6.6,3.7
	H2.8v0.9h3.8v0.3H2.8v0.9h3.8v0.3H2.8V7h3.8v9H2.7v0.3c-0.2,0-0.5-0.2-0.5-0.5V3.4c0-0.2,0.2-0.5,0.5-0.5h3.9V3.7z M6.9,22.2
	c-0.2,0-0.5-0.2-0.5-0.5c0-0.2,0.2-0.5,0.5-0.5c0.2,0,0.5,0.2,0.5,0.5C7.4,22,7.2,22.2,6.9,22.2z M16.9,21.3c0.2,0,0.5,0.2,0.5,0.5
	c0,0.2-0.2,0.5-0.5,0.5c-0.2,0-0.5-0.2-0.5-0.5C16.4,21.5,16.6,21.3,16.9,21.3z M11.8,22.2c-0.2,0-0.5-0.2-0.5-0.5
	c0-0.2,0.2-0.5,0.5-0.5c0.2,0,0.5,0.2,0.5,0.5C12.4,22,12.2,22.2,11.8,22.2z M7.7,17.6v-16H16v1H8.8v0.9h7.3v0.3H8.8v0.9h7.3v0.3
	H8.8v0.9h7.3v11.7H7.7V17.6z M21.5,15.7c0,0.2-0.2,0.5-0.5,0.5H17v-9h3.8V6.4H17V6h3.8V5H17V4.7h3.8v-1H17V2.8h3.9
	c0.2,0,0.5,0.2,0.5,0.5V15.7z" fill="white"/>
</svg>
